<?xml version="1.0" encoding="iso-8859-1"?>
<!-- Generator: Adobe Illustrator 19.0.0, SVG Export Plug-In . SVG Version: 6.00 Build 0)  -->
<svg version="1.1" id="Capa_1" xmlns="http://www.w3.org/2000/svg" xmlns:xlink="http://www.w3.org/1999/xlink" x="0px" y="0px"
	 viewBox="0 0 512 512" style="enable-background:new 0 0 512 512;" xml:space="preserve">
<path style="fill:#1689FC;" d="M392,166v45c0,16.5-13.5,30-30,30s-30-13.5-30-30v-30H180v30c0,16.5-13.5,30-30,30s-30-13.5-30-30
	v-45c0-33.001,27.001-60,60-60h152C364.999,106,392,132.999,392,166z"/>
<path style="fill:#415BE8;" d="M392,166v45c0,16.5-13.5,30-30,30s-30-13.5-30-30v-30h-76v-75h76C364.999,106,392,132.999,392,166z"
	/>
<path style="fill:#17ACE8;" d="M317,76c0,32.999-28.001,60-61,60s-61-27.001-61-60c0-33.001,28.001-60,61-60S317,42.999,317,76z"/>
<g>
	<path style="fill:#1689FC;" d="M317,76c0,32.999-28.001,60-61,60V16C288.999,16,317,42.999,317,76z"/>
	<path style="fill:#1689FC;" d="M205.396,486.323l39.971-22.5c14.289-8.25,19.231-26.692,10.981-40.981
		s-27.692-19.231-41.981-10.981l-25.981,15l-75-129.904l25.981-15c14.289-8.25,19.231-26.692,10.981-40.981
		s-26.692-19.231-40.981-10.981l-38.971,22.5c-28.58,16.501-38.461,53.383-21.962,81.962l75,129.904
		C139.934,492.939,176.816,502.823,205.396,486.323z"/>
</g>
<path style="fill:#415BE8;" d="M205.396,486.323l39.971-22.5c14.289-8.25,19.231-26.692,10.981-40.981s-27.692-19.231-41.981-10.981
	l-25.981,15l-37.5-64.952l-64.952,37.5l37.5,64.952C139.934,492.939,176.816,502.823,205.396,486.323z"/>
<path style="fill:#17ACE8;" d="M89.954,466.371c28.578-16.5,38.461-53.383,21.962-81.962c-16.5-28.578-53.383-38.461-81.962-21.962
	C1.374,378.948-8.507,415.83,7.992,444.409C24.492,472.988,61.374,482.871,89.954,466.371z"/>
<g>
	<path style="fill:#1689FC;" d="M89.954,466.371c28.578-16.5,38.461-53.383,21.962-81.962l-103.923,60
		C24.492,472.988,61.374,482.871,89.954,466.371z"/>
	<path style="fill:#1689FC;" d="M306.604,488.008l-39.971-22.5c-14.289-8.25-19.231-26.692-10.981-40.981
		c8.25-14.289,27.692-19.231,41.981-10.981l25.981,15l75-129.904l-25.981-15c-14.289-8.25-19.231-26.692-10.981-40.981
		s26.692-19.231,40.981-10.981l38.971,22.5c28.58,16.501,38.461,53.383,21.962,81.962l-75,129.904
		C372.066,494.624,335.184,504.508,306.604,488.008z"/>
</g>
<path style="fill:#415BE8;" d="M306.604,488.008l-39.971-22.5c-14.289-8.25-19.231-26.692-10.981-40.981
	c8.25-14.289,27.692-19.231,41.981-10.981l25.981,15l37.5-64.952l64.952,37.5l-37.5,64.952
	C372.066,494.624,335.184,504.508,306.604,488.008z"/>
<path style="fill:#17ACE8;" d="M422.046,468.056c-28.578-16.5-38.461-53.383-21.962-81.962c16.5-28.578,53.383-38.461,81.962-21.962
	c28.58,16.501,38.461,53.383,21.962,81.962C487.508,474.672,450.626,484.556,422.046,468.056z"/>
<path style="fill:#1689FC;" d="M422.046,468.056c-28.578-16.5-38.461-53.383-21.962-81.962l103.923,60
	C487.508,474.672,450.626,484.556,422.046,468.056z"/>
<g>
</g>
<g>
</g>
<g>
</g>
<g>
</g>
<g>
</g>
<g>
</g>
<g>
</g>
<g>
</g>
<g>
</g>
<g>
</g>
<g>
</g>
<g>
</g>
<g>
</g>
<g>
</g>
<g>
</g>
</svg>
